<svg width="512" height="512" viewBox="0 0 512 512" fill="none" xmlns="http://www.w3.org/2000/svg">
  <g clip-path="url(#clip0_37_12)">
    <mask id="mask0_37_12" style="mask-type:alpha" maskUnits="userSpaceOnUse" x="33" y="10" width="435" height="489">
      <path d="M219.462 119.898L190.949 113.395C188.442 112.823 186.788 110.459 187.212 107.923C190.467 88.4617 206.368 11.9366 255.332 10.1877C280.716 9.28112 304.094 53.8981 315.449 103.035C327.674 155.938 328.192 214.081 328.158 226.289C328.153 227.787 327.46 229.153 326.286 230.084L311.478 241.829C309.848 243.121 307.593 243.275 305.799 242.221C292.119 234.187 233.44 200.297 177.18 176.512C125.357 154.603 72.1972 142.445 78.3203 162.485C84.0335 181.182 108.324 200.284 118.848 207.857C121.372 209.674 121.796 213.332 119.674 215.605L98.6902 238.088C96.9735 239.927 94.1812 240.206 92.2047 238.65C77.323 226.927 20.7625 178.328 41.582 131.758C52.3864 107.59 104.622 109.349 157.141 125.746C206.653 141.205 256.794 167.81 276.584 178.841C280.206 180.861 284.646 177.966 284.093 173.855C279.956 143.131 266.539 52.2839 252.66 53.6056C238.824 54.9233 228.656 100.375 225.576 115.919C225.019 118.731 222.257 120.535 219.462 119.898Z" fill="#3CCD68"/>
      <path d="M219.462 119.898L190.949 113.395C188.442 112.823 186.788 110.459 187.212 107.923C190.467 88.4617 206.368 11.9366 255.332 10.1877C280.716 9.28112 304.094 53.8981 315.449 103.035C327.674 155.938 328.192 214.081 328.158 226.289C328.153 227.787 327.46 229.153 326.286 230.084L311.478 241.829C309.848 243.121 307.593 243.275 305.799 242.221C292.119 234.187 233.44 200.297 177.18 176.512C125.357 154.603 72.1972 142.445 78.3203 162.485C84.0335 181.182 108.324 200.284 118.848 207.857C121.372 209.674 121.796 213.332 119.674 215.605L98.6902 238.088C96.9735 239.927 94.1812 240.206 92.2047 238.65C77.323 226.927 20.7625 178.328 41.582 131.758C52.3864 107.59 104.622 109.349 157.141 125.746C206.653 141.205 256.794 167.81 276.584 178.841C280.206 180.861 284.646 177.966 284.093 173.855C279.956 143.131 266.539 52.2839 252.66 53.6056C238.824 54.9233 228.656 100.375 225.576 115.919C225.019 118.731 222.257 120.535 219.462 119.898Z" fill="#3CCD68"/>
      <path d="M150.208 350.721L158.833 378.665C159.591 381.122 158.371 383.737 155.962 384.638C137.481 391.549 63.2581 416.042 37.2614 374.512C23.7844 352.982 50.7345 310.427 87.611 276.025C127.314 238.986 177.408 209.466 187.998 203.392C189.297 202.647 190.827 202.564 192.221 203.115L209.796 210.067C211.73 210.833 212.99 212.709 212.974 214.789C212.856 230.653 212.847 298.417 220.378 359.031C227.316 414.866 243.367 466.982 257.66 451.66C270.996 437.363 275.394 406.776 276.69 393.876C277.001 390.781 279.957 388.585 282.987 389.286L312.949 396.217C315.401 396.784 317.039 399.063 316.679 401.553C313.968 420.302 300.16 493.585 249.419 498.839C223.087 501.566 198.492 455.449 186.434 401.768C175.065 351.16 173.035 294.434 172.694 271.78C172.631 267.633 167.905 265.236 164.621 267.77C140.082 286.714 68.1142 343.758 76.1983 355.116C84.2578 366.44 128.704 352.52 143.705 347.415C146.419 346.492 149.362 347.982 150.208 350.721Z" fill="#3CCD68"/>
      <path d="M150.208 350.721L158.833 378.665C159.591 381.122 158.371 383.737 155.962 384.638C137.481 391.549 63.2581 416.042 37.2614 374.512C23.7844 352.982 50.7345 310.427 87.611 276.025C127.314 238.986 177.408 209.466 187.998 203.392C189.297 202.647 190.827 202.564 192.221 203.115L209.796 210.067C211.73 210.833 212.99 212.709 212.974 214.789C212.856 230.653 212.847 298.417 220.378 359.031C227.316 414.866 243.367 466.982 257.66 451.66C270.996 437.363 275.394 406.776 276.69 393.876C277.001 390.781 279.957 388.585 282.987 389.286L312.949 396.217C315.401 396.784 317.039 399.063 316.679 401.553C313.968 420.302 300.16 493.585 249.419 498.839C223.087 501.566 198.492 455.449 186.434 401.768C175.065 351.16 173.035 294.434 172.694 271.78C172.631 267.633 167.905 265.236 164.621 267.77C140.082 286.714 68.1142 343.758 76.1983 355.116C84.2578 366.44 128.704 352.52 143.705 347.415C146.419 346.492 149.362 347.982 150.208 350.721Z" fill="#3CCD68"/>
      <path d="M384.406 295.676L404.294 274.234C406.043 272.349 408.917 272.098 410.901 273.734C426.127 286.284 484.45 338.316 461.482 381.595C449.576 404.031 399.247 401.969 351.016 387.234C299.087 371.37 248.475 342.747 237.921 336.613C236.625 335.86 235.789 334.577 235.569 333.094L232.802 314.398C232.498 312.34 233.493 310.311 235.302 309.284C249.1 301.454 307.79 267.581 356.518 230.751C401.403 196.825 438.511 156.867 418.095 152.15C399.046 147.749 370.358 159.234 358.538 164.561C355.702 165.839 352.323 164.377 351.415 161.403L342.436 131.989C341.702 129.583 342.856 127.025 345.192 126.092C362.785 119.065 433.153 94.3817 463.074 135.697C478.602 157.138 450.961 201.496 410.501 238.779C372.358 273.929 324.246 304.05 304.798 315.673C301.238 317.8 301.525 323.093 305.362 324.669C334.038 336.449 419.422 370.252 425.217 357.572C430.994 344.93 396.716 313.399 384.794 302.96C382.638 301.072 382.456 297.778 384.406 295.676Z" fill="#3CCD68"/>
      <path d="M384.406 295.676L404.294 274.234C406.043 272.349 408.917 272.098 410.901 273.734C426.127 286.284 484.45 338.316 461.482 381.595C449.576 404.031 399.247 401.969 351.016 387.234C299.087 371.37 248.475 342.747 237.921 336.613C236.625 335.86 235.789 334.577 235.569 333.094L232.802 314.398C232.498 312.34 233.493 310.311 235.302 309.284C249.1 301.454 307.79 267.581 356.518 230.751C401.403 196.825 438.511 156.867 418.095 152.15C399.046 147.749 370.358 159.234 358.538 164.561C355.702 165.839 352.323 164.377 351.415 161.403L342.436 131.989C341.702 129.583 342.856 127.025 345.192 126.092C362.785 119.065 433.153 94.3817 463.074 135.697C478.602 157.138 450.961 201.496 410.501 238.779C372.358 273.929 324.246 304.05 304.798 315.673C301.238 317.8 301.525 323.093 305.362 324.669C334.038 336.449 419.422 370.252 425.217 357.572C430.994 344.93 396.716 313.399 384.794 302.96C382.638 301.072 382.456 297.778 384.406 295.676Z" fill="#3CCD68"/>
    </mask>
    <g mask="url(#mask0_37_12)">
      <rect x="-86" y="-86" width="684" height="684" fill="#3CCD68"/>
    </g>
  </g>
  <defs>
    <clipPath id="clip0_37_12">
      <rect width="512" height="512" fill="white"/>
    </clipPath>
  </defs>
</svg>
